# xmcd CD database file
#
# Track frame offsets:
#	150
#	26065
#	48287
#
# Disc length: 986 seconds
#
# Revision: 0
# Processed by: cddbd v1.5.1PL0 Copyright (c) Steve Scherf et al.
# Submitted via: CDex 1.51
#
DISCID=1d03d803
DTITLE=玉置浩二 - LOVE SONG
DYEAR=1994
DGENRE=JPop
TTITLE0=LOVE SONG
TTITLE1=星になりたい
TTITLE2=LOVE SONG(カラオケ)
EXTD=YEAR: 1994
EXTT0=
EXTT1=
EXTT2=
PLAYORDER=
